<?xml version="1.0" encoding="UTF-8" standalone="no"?>
<!-- Created with Inkscape (http://www.inkscape.org/) -->

<svg
   xmlns:dc="http://purl.org/dc/elements/1.1/"
   xmlns:cc="http://creativecommons.org/ns#"
   xmlns:rdf="http://www.w3.org/1999/02/22-rdf-syntax-ns#"
   xmlns:svg="http://www.w3.org/2000/svg"
   xmlns="http://www.w3.org/2000/svg"
   xmlns:sodipodi="http://sodipodi.sourceforge.net/DTD/sodipodi-0.dtd"
   xmlns:inkscape="http://www.inkscape.org/namespaces/inkscape"
   width="744.09448819"
   height="1052.3622047"
   id="svg2"
   version="1.1"
   inkscape:version="0.47pre3 r22311"
   sodipodi:docname="logo.svg">
  <defs
     id="defs4">
    <inkscape:perspective
       sodipodi:type="inkscape:persp3d"
       inkscape:vp_x="0 : 526.18109 : 1"
       inkscape:vp_y="0 : 1000 : 0"
       inkscape:vp_z="744.09448 : 526.18109 : 1"
       inkscape:persp3d-origin="372.04724 : 350.78739 : 1"
       id="perspective10" />
    <filter
       inkscape:collect="always"
       id="filter4451"
       x="-0.68802941"
       width="2.3760588"
       y="-0.68802941"
       height="2.3760588">
      <feGaussianBlur
         inkscape:collect="always"
         stdDeviation="27.2399"
         id="feGaussianBlur4453" />
    </filter>
    <filter
       inkscape:collect="always"
       id="filter4455"
       x="-0.62735877"
       width="2.2547175"
       y="-1.8714509"
       height="4.7429019">
      <feGaussianBlur
         inkscape:collect="always"
         stdDeviation="27.2399"
         id="feGaussianBlur4457" />
    </filter>
    <filter
       inkscape:collect="always"
       id="filter4489"
       x="-0.14312704"
       width="1.2862541"
       y="-0.082668312"
       height="1.1653366">
      <feGaussianBlur
         inkscape:collect="always"
         stdDeviation="2.1469702"
         id="feGaussianBlur4491" />
    </filter>
    <filter
       inkscape:collect="always"
       id="filter4497"
       x="-0.12576419"
       width="1.2515284"
       y="-0.12576419"
       height="1.2515284">
      <feGaussianBlur
         inkscape:collect="always"
         stdDeviation="12.96877"
         id="feGaussianBlur4499" />
    </filter>
  </defs>
  <sodipodi:namedview
     id="base"
     pagecolor="#ffffff"
     bordercolor="#666666"
     borderopacity="1.0"
     inkscape:pageopacity="0.0"
     inkscape:pageshadow="2"
     inkscape:zoom="0.49497475"
     inkscape:cx="302.83632"
     inkscape:cy="592.90377"
     inkscape:document-units="px"
     inkscape:current-layer="layer1"
     showgrid="false"
     inkscape:window-width="1440"
     inkscape:window-height="856"
     inkscape:window-x="0"
     inkscape:window-y="0"
     inkscape:window-maximized="0" />
  <metadata
     id="metadata7">
    <rdf:RDF>
      <cc:Work
         rdf:about="">
        <dc:format>image/svg+xml</dc:format>
        <dc:type
           rdf:resource="http://purl.org/dc/dcmitype/StillImage" />
        <dc:title />
      </cc:Work>
    </rdf:RDF>
  </metadata>
  <g
     inkscape:label="Layer 1"
     inkscape:groupmode="layer"
     id="layer1">
    <g
       id="g4394"
       transform="translate(208.21445,491.33272)">
      <rect
         transform="matrix(0.98893853,0.14832593,-0.14832593,0.98893853,0,0)"
         ry="69.150093"
         rx="107.03082"
         y="109.70377"
         x="369.67267"
         height="138.30019"
         width="214.06163"
         id="rect4251"
         style="fill:#729768;fill-opacity:1;stroke:none" />
      <rect
         transform="matrix(-0.06916596,-0.99760517,0.99931899,-0.03689935,0,0)"
         ry="39.919697"
         rx="67.307999"
         y="373.77869"
         x="-303.44754"
         height="79.839394"
         width="134.61598"
         id="rect2816"
         style="fill:#729768;fill-opacity:1;stroke:none" />
      <path
         transform="matrix(0.97953722,0.2012631,-0.2012631,0.97953722,349.79965,-137.6787)"
         d="m 197.85715,371.29074 c 0,26.23353 -21.26648,47.5 -47.5,47.5 -26.23353,0 -47.5,-21.26647 -47.5,-47.5 0,-26.23352 21.26647,-47.5 47.5,-47.5 26.23352,0 47.5,21.26648 47.5,47.5 z"
         sodipodi:ry="47.5"
         sodipodi:rx="47.5"
         sodipodi:cy="371.29074"
         sodipodi:cx="150.35715"
         id="path2818"
         style="opacity:0.98999999;fill:#ffffff;fill-opacity:1;stroke:none"
         sodipodi:type="arc" />
      <path
         sodipodi:nodetypes="csccsccc"
         id="rect2820"
         d="m 458.9736,254.94528 c -2.68594,-0.0527 -4.92482,5.43566 -5.43805,7.93351 -0.58654,2.85469 -1.69352,7.13049 1.44664,7.77569 l 95.24152,18.65508 c 3.14016,0.6452 6.15677,-1.12686 6.74332,-3.98155 0.58655,-2.85469 -1.4858,-5.66083 -4.62596,-6.30603 L 461.30795,256.3985 c -7.09967,-3.10544 -1.95064,-1.44568 -2.33435,-1.45322 z"
         style="opacity:0.98999999;fill:#ffffff;fill-opacity:1;stroke:none" />
      <path
         id="rect4249"
         d="m 417.58111,273.37703 c -6.7703,-0.0668 -12.6246,4.07383 -13.78125,10.1875 l -5.78125,30.53125 c 3.39253,0.72779 6.86052,1.34788 10.375,1.875 6.32753,0.94904 12.56895,1.49761 18.6875,1.71875 l 5.40625,-28.6875 c 1.32189,-6.98705 -4.02164,-13.80897 -11.96875,-15.3125 -0.99339,-0.18794 -1.97031,-0.30296 -2.9375,-0.3125 z"
         style="fill:#729768;fill-opacity:1;stroke:none" />
    </g>
    <rect
       style="fill:#729768;fill-opacity:1;stroke:none"
       id="rect2826"
       width="29.198887"
       height="62.837944"
       x="745.29266"
       y="634.9256"
       rx="14.599443"
       ry="12.83573"
       transform="matrix(0.98256984,0.18589381,-0.18589381,0.98256984,0,0)" />
    <path
       style="opacity:0.97000002;fill:#729768;fill-opacity:1;stroke:none"
       d=""
       id="path3347" />
    <path
       style="opacity:0.97000002;fill:#729768;fill-opacity:1;stroke:none"
       d=""
       id="path3349" />
    <path
       style="opacity:0.97000002;fill:#729768;fill-opacity:1;stroke:none"
       d=""
       id="path3351" />
    <path
       style="opacity:0.97000002;fill:#729768;fill-opacity:1;stroke:none"
       d=""
       id="path3353" />
    <path
       style="opacity:0.97000002;fill:#729768;fill-opacity:1;stroke:none"
       d=""
       id="path3355" />
    <g
       id="g4390"
       transform="translate(-335.70997,533.57809)">
      <path
         transform="translate(37.375644,-18.182746)"
         d="m 168.69547,252.82645 c 0,68.34175 -55.40194,123.74368 -123.743684,123.74368 -68.341749,0 -123.743683,-55.40193 -123.743683,-123.74368 0,-68.34175 55.401934,-123.74369 123.743683,-123.74369 68.341744,0 123.743684,55.40194 123.743684,123.74369 z"
         sodipodi:ry="123.74368"
         sodipodi:rx="123.74368"
         sodipodi:cy="252.82645"
         sodipodi:cx="44.951786"
         id="path4310"
         style="fill:#729768;fill-opacity:1;stroke:none"
         sodipodi:type="arc" />
      <path
         id="rect4312"
         d="m 85.678436,153.15238 c -13.26077,0.48965 -24.221949,11.72772 -30.312499,28.65625 -30.30761,7.96081 -52.1430071,26.06557 -55.71875111,49.90625 -5.68224099,37.8854 36.95457011,75.455 95.59375011,84.25 50.487674,7.5724 95.883704,-8.73496 111.156244,-37.59375 l -68.21874,-13.375 c -5.64915,17.32667 -20.63436,29.59603 -38.0625,32.21875 l 3.0625,-16.28125 c 1.32189,-6.98705 -4.021644,-13.80897 -11.968754,-15.3125 -0.99339,-0.18794 -1.97031,-0.30296 -2.9375,-0.3125 -6.7703,-0.0668 -12.6246,4.07383 -13.78125,10.1875 l -3.21875,16.9375 c -18.45362,-9.51438 -29.1336,-30.44649 -24.75,-51.78125 4.61986,-22.48463 24.40653,-37.95527 46.5,-37.9375 3.15621,0.003 6.38166,0.30877 9.593754,0.96875 22.55854,4.63505 38.05766,24.56894 37.9375,46.75 l 69.90624,17.375 c 0.35859,-1.42992 0.6538,-2.86891 0.875,-4.34375 5.54314,-36.95798 -34.89213,-73.5934 -91.31249,-83.53125 -8.40258,-16.68118 -20.949364,-27.27583 -34.343754,-26.78125 z"
         style="fill:#ffffff;fill-opacity:1;stroke:none" />
    </g>
    <g
       id="g4385"
       transform="translate(581.91954,-209.96334)">
      <path
         sodipodi:type="arc"
         style="fill:#729768;fill-opacity:1;stroke:none"
         id="path4333"
         sodipodi:cx="44.951786"
         sodipodi:cy="252.82645"
         sodipodi:rx="123.74368"
         sodipodi:ry="123.74368"
         d="m 168.69547,252.82645 c 0,68.34175 -55.40194,123.74368 -123.743684,123.74368 -68.341749,0 -123.743683,-55.40193 -123.743683,-123.74368 0,-68.34175 55.401934,-123.74369 123.743683,-123.74369 68.341744,0 123.743684,55.40194 123.743684,123.74369 z"
         transform="translate(26.263966,256.57874)" />
      <path
         style="fill:#ffffff;fill-opacity:1;stroke:none"
         d="m 74.566758,427.91387 c -13.26077,0.48965 -24.221949,11.72772 -30.312499,28.65625 -30.30761,7.96081 -52.143007,26.06557 -55.718751,49.90625 -5.682241,37.8854 36.95457,75.455 95.59375,84.25 50.487672,7.5724 95.883702,-8.73496 111.156242,-37.59375 l -68.21874,-13.375 c -5.64915,17.32667 -20.63436,29.59603 -38.062498,32.21875 l 3.0625,-16.28125 c 1.32189,-6.98705 -4.021644,-13.80897 -11.968754,-15.3125 -0.99339,-0.18794 -1.97031,-0.30296 -2.9375,-0.3125 -6.7703,-0.0668 -12.6246,4.07383 -13.78125,10.1875 l -3.21875,16.9375 c -18.45362,-9.51438 -29.1336,-30.44649 -24.75,-51.78125 4.61986,-22.48463 24.40653,-37.95527 46.5,-37.9375 3.15621,0.003 6.38166,0.30877 9.593754,0.96875 22.558538,4.63505 38.057658,24.56894 37.937498,46.75 l 69.90624,17.375 c 0.35859,-1.42992 0.6538,-2.86891 0.875,-4.34375 5.54314,-36.95798 -34.89213,-73.5934 -91.31249,-83.53125 -8.40258,-16.68118 -20.949362,-27.27583 -34.343752,-26.78125 z"
         id="path4335" />
      <path
         transform="matrix(0.9827918,0.18471676,-0.26183152,1.3930835,63.405122,75.085206)"
         d="m 144.45181,382.12598 c 0,28.73143 -19.44721,52.02285 -43.43656,52.02285 -23.989347,0 -43.436557,-23.29142 -43.436557,-52.02285 0,-28.73143 19.44721,-52.02286 43.436557,-52.02286 23.98935,0 43.43656,23.29143 43.43656,52.02286 z"
         sodipodi:ry="52.022854"
         sodipodi:rx="43.436558"
         sodipodi:cy="382.12598"
         sodipodi:cx="101.01525"
         id="path4329"
         style="fill:#ffffff;fill-opacity:1;stroke:none"
         sodipodi:type="arc" />
    </g>
    <g
       id="g4367"
       transform="translate(-309.89027,-10.894114)">
      <path
         transform="translate(467.70063,526.28946)"
         d="m 168.69547,252.82645 c 0,68.34175 -55.40194,123.74368 -123.743684,123.74368 -68.341749,0 -123.743683,-55.40193 -123.743683,-123.74368 0,-68.34175 55.401934,-123.74369 123.743683,-123.74369 68.341744,0 123.743684,55.40194 123.743684,123.74369 z"
         sodipodi:ry="123.74368"
         sodipodi:rx="123.74368"
         sodipodi:cy="252.82645"
         sodipodi:cx="44.951786"
         id="path4337"
         style="fill:#729768;fill-opacity:1;stroke:none"
         sodipodi:type="arc" />
      <path
         id="path4339"
         d="m 500.85113,664.28956 c -13.26077,0.48965 -24.22195,11.72772 -30.3125,28.65625 -30.30761,7.96081 -52.14301,26.06557 -55.71875,49.90625 -5.68224,37.8854 36.95457,75.455 95.59375,84.25 50.48767,7.5724 95.8837,-8.73496 111.15624,-37.59375 l -68.21874,-13.375 c -5.64915,17.32667 -20.63436,29.59603 -38.0625,32.21875 l 3.0625,-16.28125 c 1.32189,-6.98705 -4.02164,-13.80897 -11.96875,-15.3125 -0.99339,-0.18794 -1.97031,-0.30296 -2.9375,-0.3125 -6.7703,-0.0668 -12.6246,4.07383 -13.78125,10.1875 l -3.21875,16.9375 c -18.45362,-9.51438 -29.1336,-30.44649 -24.75,-51.78125 4.61986,-22.48463 24.40653,-37.95527 46.5,-37.9375 3.15621,0.003 6.38166,0.30877 9.59375,0.96875 22.55854,4.63505 38.05766,24.56894 37.9375,46.75 l 69.90624,17.375 c 0.35859,-1.42992 0.6538,-2.86891 0.875,-4.34375 5.54314,-36.95798 -34.89213,-73.5934 -91.31249,-83.53125 -8.40258,-16.68118 -20.94936,-27.27583 -34.34375,-26.78125 z"
         style="fill:#ffffff;fill-opacity:1;stroke:none" />
    </g>
    <g
       id="g4401"
       transform="translate(-538.18474,-235.21715)">
      <g
         transform="translate(127.27922,-177.78685)"
         id="g4379">
        <g
           id="g4374"
           transform="translate(268.70057,238.396)">
          <path
             transform="translate(300.01531,221.2234)"
             d="m 168.69547,252.82645 c 0,68.34175 -55.40194,123.74368 -123.743684,123.74368 -68.341749,0 -123.743683,-55.40193 -123.743683,-123.74368 0,-68.34175 55.401934,-123.74369 123.743683,-123.74369 68.341744,0 123.743684,55.40194 123.743684,123.74369 z"
             sodipodi:ry="123.74368"
             sodipodi:rx="123.74368"
             sodipodi:cy="252.82645"
             sodipodi:cx="44.951786"
             id="path4345"
             style="fill:#729768;fill-opacity:1;stroke:none"
             sodipodi:type="arc" />
          <g
             id="g4371">
            <path
               style="fill:#ffffff;fill-opacity:1;stroke:none"
               d="m 333.16581,360.23365 c -13.26077,0.48965 -24.22195,11.72772 -30.3125,28.65625 -30.30761,7.96081 -52.14301,26.06557 -55.71875,49.90625 -5.68224,37.8854 36.95457,75.455 95.59375,84.25 50.48767,7.5724 95.8837,-8.73496 111.15624,-37.59375 l -68.21874,-13.375 c -5.64915,17.32667 -20.63436,29.59603 -38.0625,32.21875 l 3.0625,-16.28125 c 1.32189,-6.98705 -4.02164,-13.80897 -11.96875,-15.3125 -0.99339,-0.18794 -1.97031,-0.30296 -2.9375,-0.3125 -6.7703,-0.0668 -12.6246,4.07383 -13.78125,10.1875 l -3.21875,16.9375 c -18.45362,-9.51438 -29.1336,-30.44649 -24.75,-51.78125 4.61986,-22.48463 24.40653,-37.95527 46.5,-37.9375 3.15621,0.003 6.38166,0.30877 9.59375,0.96875 22.55854,4.63505 38.05766,24.56894 37.9375,46.75 l 69.90624,17.375 c 0.35859,-1.42992 0.6538,-2.86891 0.875,-4.34375 5.54314,-36.95798 -34.89213,-73.5934 -91.31249,-83.53125 -8.40258,-16.68118 -20.94936,-27.27583 -34.34375,-26.78125 z"
               id="path4347" />
          </g>
        </g>
      </g>
      <path
         transform="matrix(0.98520425,0.17138433,-0.17138433,0.98520425,578.93561,-83.374582)"
         d="m 322.23867,774.06519 c 0,87.31007 -28.49242,158.08886 -63.63961,158.08886 -35.14719,0 -63.63961,-70.77879 -63.63961,-158.08886 0,-87.31007 28.49242,-158.08887 63.63961,-158.08887 35.14719,0 63.63961,70.7788 63.63961,158.08887 z"
         sodipodi:ry="158.08887"
         sodipodi:rx="63.63961"
         sodipodi:cy="774.06519"
         sodipodi:cx="258.59906"
         id="path4351"
         style="fill:#ffffff;fill-opacity:1;stroke:none"
         sodipodi:type="arc" />
    </g>
    <g
       id="g4361"
       transform="translate(-415.65672,-483.71467)">
      <path
         sodipodi:type="arc"
         style="fill:#729768;fill-opacity:1;stroke:none"
         id="path4353"
         sodipodi:cx="44.951786"
         sodipodi:cy="252.82645"
         sodipodi:rx="123.74368"
         sodipodi:ry="123.74368"
         d="m 168.69547,252.82645 c 0,68.34175 -55.40194,123.74368 -123.743684,123.74368 -68.341749,0 -123.743683,-55.40193 -123.743683,-123.74368 0,-68.34175 55.401934,-123.74369 123.743683,-123.74369 68.341744,0 123.743684,55.40194 123.743684,123.74369 z"
         transform="translate(120.20816,530.33007)" />
      <path
         sodipodi:type="arc"
         style="opacity:0.98999999;fill:#ffffff;fill-opacity:1;stroke:none"
         id="path4355"
         sodipodi:cx="150.35715"
         sodipodi:cy="371.29074"
         sodipodi:rx="47.5"
         sodipodi:ry="47.5"
         d="m 197.85715,371.29074 c 0,26.23353 -21.26648,47.5 -47.5,47.5 -26.23353,0 -47.5,-21.26647 -47.5,-47.5 0,-26.23352 21.26647,-47.5 47.5,-47.5 26.23352,0 47.5,21.26648 47.5,47.5 z"
         transform="matrix(0.97953722,0.2012631,-0.2012631,0.97953722,73.017855,383.56001)" />
      <path
         style="opacity:0.98999999;fill:#ffffff;fill-opacity:1;stroke:none"
         d="m 182.1918,776.18399 c -2.68594,-0.0527 -4.92482,5.43566 -5.43805,7.93351 -0.58654,2.85469 -1.69352,7.13049 1.44664,7.77569 l 95.24152,18.65508 c 3.14016,0.6452 6.15677,-1.12686 6.74332,-3.98155 0.58655,-2.85469 -1.4858,-5.66083 -4.62596,-6.30603 l -91.03312,-22.62348 c -7.09967,-3.10544 -1.95064,-1.44568 -2.33435,-1.45322 z"
         id="path4357"
         sodipodi:nodetypes="csccsccc" />
      <path
         style="fill:#729768;fill-opacity:1;stroke:none"
         d="m 140.79931,794.61574 c -6.7703,-0.0668 -12.6246,4.07383 -13.78125,10.1875 l -5.78125,30.53125 c 3.39253,0.72779 6.86052,1.34788 10.375,1.875 6.32753,0.94904 12.56895,1.49761 18.6875,1.71875 l 5.40625,-28.6875 c 1.32189,-6.98705 -4.02164,-13.80897 -11.96875,-15.3125 -0.99339,-0.18794 -1.97031,-0.30296 -2.9375,-0.3125 z"
         id="path4359" />
    </g>
  </g>
</svg>
